<?xml version="1.0" encoding="utf-8"?>
<!-- Generator: Adobe Illustrator 21.0.0, SVG Export Plug-In . SVG Version: 6.00 Build 0)  -->
<svg version="1.1"
	 id="Layer_1" inkscape:version="0.91 r13725" sodipodi:docname="icon.svg" xmlns:cc="http://creativecommons.org/ns#" xmlns:dc="http://purl.org/dc/elements/1.1/" xmlns:inkscape="http://www.inkscape.org/namespaces/inkscape" xmlns:rdf="http://www.w3.org/1999/02/22-rdf-syntax-ns#" xmlns:sodipodi="http://sodipodi.sourceforge.net/DTD/sodipodi-0.dtd" xmlns:svg="http://www.w3.org/2000/svg"
	 xmlns="http://www.w3.org/2000/svg" xmlns:xlink="http://www.w3.org/1999/xlink" x="0px" y="0px" viewBox="0 0 412.9 401.7"
	 style="enable-background:new 0 0 412.9 401.7;" xml:space="preserve">
<style type="text/css">
	.st0{fill:#DD5044;}
	.st1{fill:#FFFFFF;}
</style>
<g>
	<circle class="st0" cx="206.4" cy="200.9" r="198.7"/>
	<path id="G_" class="st1" d="M160.7,278.8c-44.3,0-80.3-35.9-80.3-80.2s35.9-80.3,80.2-80.3c20.1,0,39.4,7.5,54.2,21l-23.7,23.2
		c-22-18.6-56.1-13.6-71.4,12.4c-10,17-8.2,38.7,4.5,53.8c19.5,23.1,53.9,22.3,72.5,0.3c3.5-4.1,6.2-8.7,8.1-13.7h-45.2v-33.5h79.5
		c9.2,43.4-18.5,86-61.8,95.3C171.9,278.2,166.3,278.8,160.7,278.8z M331.6,204.6h-27.8v27.8h-20v-27.8H256v-20h27.8v-27.8h20v27.8
		h27.8L331.6,204.6L331.6,204.6z"/>
</g>
</svg>
